<svg xmlns="http://www.w3.org/2000/svg" width="24" height="24" viewBox="0 0 24 24">
    <defs>
        <clipPath id="clip-bc">
            <rect width="24" height="24" />
        </clipPath>
    </defs>
    <g id="bc" clip-path="url(#clip-bc)">
        <path id="Path_142" data-name="Path 142"
            d="M-2536-785a5.807,5.807,0,0,0-.588-3.994s-.005-.005-.006-.005a5.677,5.677,0,0,0,1.336-2H-2533c.043,2.536-.407,4.309-1.339,5.268a2.29,2.29,0,0,1-1.621.729.186.186,0,0,0-.039,0h0Zm-5,0h-.027c-1.121,0-2.186-1.935-2.317-2.719a1.705,1.705,0,0,0-.223-.572,12.92,12.92,0,0,0,1.408-.632h0l.028-.014.005,0A1.225,1.225,0,0,1-2542-789a4.47,4.47,0,0,1-2.814-.8l-.011-.012,0,0c-.054-.059-.109-.119-.168-.185l0,0v0c-.123-.133-.222-.244-.314-.348-.708-.8-.759-3.209-.726-4.577a18.225,18.225,0,0,0,1.534,1.442c0,.073.005.129.005.182.243.883,2.029,1.618,2.046,1.625a7.42,7.42,0,0,1,0-1.328c.025-.324-.528-.714-1.229-1.21l0,0,0,0,0,0c-.294-.207-.628-.442-.958-.708a3.476,3.476,0,0,1-1.348-1.966c0-.045,0-.08,0-.111-.009-1.755.355-4.878.648-7.387l0-.022v-.008c.205-1.754.367-3.139.348-3.583,2.112,1.8,2.041,7.484,2.007,10.213v.182c0,.207,0,.422,0,.6a1.794,1.794,0,0,0,.89,1.694A2.648,2.648,0,0,0-2541-795a2.648,2.648,0,0,0,1.111-.307A1.794,1.794,0,0,0-2539-797c0-.183,0-.4-.005-.6v-.182c-.034-2.729-.106-8.409,2.006-10.213-.019.444.143,1.83.348,3.583v.008l0,.022c.293,2.509.658,5.632.648,7.387,0,.031,0,.067,0,.111a3.475,3.475,0,0,1-1.349,1.966c-.33.266-.664.5-.958.708l0,0,0,0,0,0c-.7.5-1.254.886-1.229,1.21a7.42,7.42,0,0,1,0,1.328c.017-.007,1.8-.742,2.046-1.625,0-.053,0-.109.005-.182a18.162,18.162,0,0,0,1.533-1.442c.033,1.368-.018,3.78-.726,4.577-.092.1-.191.215-.313.348v0a.006.006,0,0,1,0,0c-.059.066-.115.126-.169.185l0,0-.011.012a4.471,4.471,0,0,1-2.814.8,1.22,1.22,0,0,1,.122.059l.006,0,.028.014h0a12.881,12.881,0,0,0,1.407.632,1.721,1.721,0,0,0-.223.572c-.131.784-1.2,2.719-2.316,2.719Zm0-2.118a1.759,1.759,0,0,0,1.468-1.147,4.933,4.933,0,0,1-1.368.2v.014l-.1-.007-.1.007v-.014a4.942,4.942,0,0,1-1.368-.2A1.759,1.759,0,0,0-2541-787.118Zm-5,2.118a.181.181,0,0,0-.039,0,2.29,2.29,0,0,1-1.621-.729c-.932-.959-1.382-2.732-1.339-5.268h2.258a5.68,5.68,0,0,0,1.336,2s0,0-.006.005A5.805,5.805,0,0,0-2546-785h0Zm10.866-7s0,0,0,0a30.731,30.731,0,0,0,.136-4.813v-.036c0-.1,0-.149,0-.151a8.184,8.184,0,0,1,4.152,2.676A18.723,18.723,0,0,1-2529-792h-6c-.012,0-.073.007-.109.007S-2535.135-791.994-2535.135-792ZM-2547-792h-6a18.823,18.823,0,0,1,1.848-2.324A8.182,8.182,0,0,1-2547-797s0,.048,0,.151v.036a30.731,30.731,0,0,0,.136,4.813s0,0,0,0,0,0-.027,0S-2546.988-792-2547-792Zm6-4a.952.952,0,0,1-.1,0h0a1,1,0,0,1-.9-.995,1,1,0,0,1,.9-1h.005q.047,0,.1,0c.032,0,.064,0,.1,0h0a1,1,0,0,1,.9,1,1,1,0,0,1-.9.995h0a.955.955,0,0,1-.1,0Zm7.523-1.57A5.418,5.418,0,0,0-2535-798l-.281-3h.28c.657,0,2.4-.012,3.632-.012.9,0,1.363,0,1.369.014a3.231,3.231,0,0,1-1.379,1.957,16.573,16.573,0,0,1-1.885,1.333,1.967,1.967,0,0,0-.211.139h0Zm-15.047,0h0a1.907,1.907,0,0,0-.211-.139,16.531,16.531,0,0,1-1.885-1.333A3.23,3.23,0,0,1-2552-801c.006-.009.467-.014,1.369-.014,1.23,0,2.975.009,3.633.012h.279l-.281,3a5.418,5.418,0,0,0-1.523.43Zm8.523-1.165a2.638,2.638,0,0,0-1-.265,2.641,2.641,0,0,0-1,.265h0a19.774,19.774,0,0,0-.672-6.9,3.226,3.226,0,0,1,.567-.833,1.473,1.473,0,0,1,1.056-.536h.1a1.472,1.472,0,0,1,1.056.536,3.219,3.219,0,0,1,.567.833,19.75,19.75,0,0,0-.672,6.9h0Zm4.649-2.985-.352-3.28h2.7l-2.351,3.28h0Zm-11.3,0L-2549-805h2.7l-.352,3.28h0Z"
            transform="translate(2553 808.5)" fill="#000" />
    </g>
</svg>
