<svg xmlns="http://www.w3.org/2000/svg" xmlns:xlink="http://www.w3.org/1999/xlink" width="24" height="24" viewBox="0 0 24 24">
  <defs>
    <clipPath id="clip-levelranking_2">
      <rect width="48" height="48"/>
    </clipPath>
  </defs>
  <g id="levelranking_2" data-name="levelranking – 2" clip-path="url(#clip-levelranking_2)">
    <g id="Group_85" data-name="Group 85" transform="translate(0.006)">
      <g id="Group_84" data-name="Group 84" clip-path="url(#clip-path)">
        <path id="Path_198" data-name="Path 198" d="M354.754,282.263s0,0,.006,0h-.006" transform="translate(-337.369 -268.43)" fill="#000"/>
        <path id="Path_199" data-name="Path 199" d="M23.932,5.034c-3.427-.352-4.658-1.372-5.1-2.055l.576-1.039A1.072,1.072,0,0,0,18.99.483L18.362.134A1.072,1.072,0,0,0,16.9.552l-.428.771c-.95,1.448-2.171.286-2.857,1.476-1.438,2.8.119,3.463.119,3.463L12,9.405,10.255,6.263s1.557-.665.119-3.463c-.686-1.19-1.906-.028-2.857-1.476L7.09.552A1.072,1.072,0,0,0,5.632.134L5,.483A1.072,1.072,0,0,0,4.587,1.94l.576,1.039c-.443.683-1.674,1.7-5.1,2.055.089.007-1.433,7.982,6.542,8.8A6.428,6.428,0,0,1,7.766,7.677l2.594,4.68L6.993,18.434l0,0a.47.47,0,0,0-.64.183l-.742,1.339a.47.47,0,0,0,.156.623A1.572,1.572,0,1,0,8.331,22a.47.47,0,0,0,.611-.2l.742-1.339a.47.47,0,0,0-.183-.64l0,0L12,15.309l2.5,4.512,0,0a.47.47,0,0,0-.183.64l.742,1.339a.47.47,0,0,0,.611.2,1.572,1.572,0,1,0,2.568-1.423.47.47,0,0,0,.156-.623l-.742-1.339a.47.47,0,0,0-.64-.183l0,0-3.368-6.076,2.594-4.68a6.428,6.428,0,0,1,1.162,6.155c7.975-.816,6.453-8.791,6.542-8.8M7.292,22.067a.592.592,0,1,1-.409-.869l.326.181a.593.593,0,0,1,.083.688m9.493-.688.326-.181a.592.592,0,1,1-.326.181" transform="translate(0 0)" fill="#000"/>
        <path id="Path_200" data-name="Path 200" d="M134.761,282.262s0,0,.006,0h-.006" transform="translate(-128.157 -268.43)" fill="#000"/>
      </g>
    </g>
  </g>
</svg>
