<svg xmlns="http://www.w3.org/2000/svg" xmlns:xlink="http://www.w3.org/1999/xlink" width="48" height="48" viewBox="0 0 48 48">
  <defs>
    <clipPath id="clip-fishing">
      <rect width="48" height="48"/>
    </clipPath>
  </defs>
  <g id="fishing" clip-path="url(#clip-fishing)">
    <path id="path693" d="M316.168,663.39a.564.564,0,0,0-.164-.007.6.6,0,0,1-.172-.008.958.958,0,0,0-.2-.017,1.316,1.316,0,0,1-.246-.023,1.153,1.153,0,0,0-.219-.024,1.814,1.814,0,0,1-.278-.032c-.088-.017-.234-.04-.325-.05a22.37,22.37,0,0,1-2.318-.51l-.294-.088c-.363-.1-.675-.2-.856-.269-.119-.044-.279-.1-.356-.125s-.2-.071-.278-.1-.188-.074-.249-.095-.189-.071-.287-.112l-.324-.134c-.239-.1-.468-.2-.565-.241l-.295-.135c-.216-.1-1.292-.632-1.514-.752l-.287-.157-.254-.139c-.054-.029-.15-.083-.213-.12s-.151-.087-.2-.111-.1-.059-.128-.077a1.25,1.25,0,0,0-.115-.069c-.072-.038-.356-.208-.494-.3l-.185-.116c-.381-.236-1.014-.652-1.4-.92l-.231-.159c-.045-.031-.148-.1-.229-.163s-.166-.12-.188-.135c-.079-.053-.671-.494-.974-.725-.222-.169-.246-.188-.346-.27-.055-.045-.139-.112-.186-.148-.088-.067-.158-.123-.508-.409-.195-.159-1.063-.9-1.147-.976l-.18-.161c-.076-.067-.149-.134-.163-.148s-.065-.062-.115-.106c-.344-.3-1.2-1.157-1.588-1.589l-.171-.188a7.982,7.982,0,0,1-.553-.658.906.906,0,0,1-.086-.191,1.292,1.292,0,0,0-.058-.163c-.032-.068-.032-.072,0-.109a3.047,3.047,0,0,1,.24-.213,6.119,6.119,0,0,0,.861-.884c.036-.045.078-.1.094-.114a.667.667,0,0,0,.06-.082,1.1,1.1,0,0,1,.074-.1,1.292,1.292,0,0,0,.149-.209.237.237,0,0,1,.042-.064,1.721,1.721,0,0,0,.171-.254.6.6,0,0,1,.065-.1.276.276,0,0,0,.049-.077.319.319,0,0,1,.048-.082,1.248,1.248,0,0,0,.084-.138.979.979,0,0,1,.075-.122.211.211,0,0,0,.039-.066.445.445,0,0,1,.052-.1c.049-.076.086-.144.219-.4.03-.058.066-.125.079-.147.055-.094.5-1.031.5-1.053,0-.006.037-.089.082-.184a1.767,1.767,0,0,0,.082-.189,1.751,1.751,0,0,1,.076-.184c.042-.092.092-.216.113-.274s.057-.151.081-.2.069-.168.1-.254.078-.211.106-.278.091-.237.139-.377.12-.35.161-.467.1-.283.124-.368.079-.24.115-.344.111-.343.166-.532.147-.495.2-.679c.178-.572.467-1.662.467-1.76,0-.072-.026-.073-.057,0-.057.13-.112.242-.174.356-.037.067-.091.168-.12.223a1.67,1.67,0,0,1-.088.15.225.225,0,0,0-.036.064.635.635,0,0,1-.065.11.551.551,0,0,0-.066.113.209.209,0,0,1-.038.067.808.808,0,0,0-.067.108c-.016.031-.053.094-.082.139l-.11.172-.239.377c-.037.058-.09.137-.118.174a.354.354,0,0,0-.05.08.35.35,0,0,1-.049.08c-.068.093-.161.223-.229.322-.031.046-.081.113-.111.149a.338.338,0,0,0-.053.079.341.341,0,0,1-.053.08c-.029.037-.075.1-.1.133l-.1.13-.106.14c-.055.073-.133.172-.22.279l-.309.374c-.029.034-.064.075-.078.09s-.062.068-.1.118a12.846,12.846,0,0,1-1.105,1.114c-.081.073-.538.443-.6.484a6.682,6.682,0,0,1-.86.538l-.147.075c-.04.022-.2.093-.278.123-.04.016-.092.037-.115.048a.873.873,0,0,1-.115.041c-.04.012-.092.029-.115.038a2.906,2.906,0,0,1-.36.1,4.974,4.974,0,0,1-.589.071,2.368,2.368,0,0,1-.608-.043c-.025-.038-.012-1.012.021-1.651s.048-.862.079-1.22c.01-.117.024-.287.032-.377.021-.261.05-.527.076-.712.013-.094.024-.2.024-.229a2.2,2.2,0,0,1,.025-.221c.014-.09.036-.256.048-.368s.034-.264.048-.336.033-.2.043-.295.037-.26.059-.377.055-.315.073-.44.065-.383.1-.573.091-.45.115-.576c.145-.772.564-2.428.746-2.947.019-.054.078-.242.13-.417.106-.353.38-1.161.449-1.323.024-.057.066-.171.094-.254a2.188,2.188,0,0,1,.088-.225c.021-.041.063-.148.094-.237s.082-.218.113-.286.066-.152.078-.188a1.5,1.5,0,0,1,.07-.164c.027-.054.067-.146.088-.2s.068-.166.1-.238c.1-.206.193-.406.228-.493.018-.044.132-.276.253-.514.208-.409.272-.531.44-.84l.111-.2c.023-.042.064-.112.092-.155a1.034,1.034,0,0,0,.071-.127c.011-.027.027-.049.035-.049s.014-.015.014-.033c0-.035-.024-.044-.041-.016a.044.044,0,0,1-.034.016.339.339,0,0,0-.1.061c-.044.034-.122.091-.174.127-.134.093-.59.458-.739.592-.324.29-.651.612-.9.881l-.188.206c-.056.062-.128.145-.2.228-.031.038-.076.09-.1.115s-.067.08-.1.122-.1.126-.149.186a1.67,1.67,0,0,0-.122.163c-.017.029-.036.053-.042.053a.3.3,0,0,0-.062.078c-.028.043-.076.111-.108.151-.066.085-.166.227-.213.3a.562.562,0,0,1-.062.081.476.476,0,0,0-.062.089c-.018.033-.051.085-.073.117l-.09.131-.09.131a1.161,1.161,0,0,0-.072.123.626.626,0,0,1-.073.113.291.291,0,0,0-.052.082.346.346,0,0,1-.047.084,1.045,1.045,0,0,0-.074.123.983.983,0,0,1-.076.124.221.221,0,0,0-.039.066.626.626,0,0,1-.065.113.586.586,0,0,0-.065.115.308.308,0,0,1-.044.082c-.024.036-.065.106-.091.155s-.079.149-.119.221-.1.19-.137.262-.077.149-.091.172a1.081,1.081,0,0,0-.058.114c-.018.041-.046.1-.064.131-.065.117-.353.727-.371.786a1.727,1.727,0,0,1-.075.164c-.034.068-.08.171-.1.23s-.056.138-.075.176-.054.121-.077.185-.066.169-.1.233-.066.157-.082.207-.064.178-.108.286-.117.307-.163.442l-.149.433c-.036.1-.087.276-.114.385a.952.952,0,0,1-.075.222c-.022.022-.024-.024-.015-.442.006-.257.018-.581.027-.72.042-.632.072-.981.1-1.136a1.35,1.35,0,0,0,.016-.176,2.353,2.353,0,0,1,.034-.27c.018-.107.041-.271.05-.365s.031-.238.048-.319.054-.285.081-.451.072-.406.1-.532c.069-.31.313-1.269.376-1.481.08-.268.361-1.1.393-1.163a2.276,2.276,0,0,0,.08-.213c.028-.086.08-.218.114-.295s.085-.194.112-.262c.074-.183.162-.383.241-.548.108-.225.27-.554.287-.581s.037-.069.063-.123c.059-.122.165-.322.182-.344s.039-.064.07-.123a3.3,3.3,0,0,1,.2-.354.219.219,0,0,0,.038-.066.585.585,0,0,1,.061-.109c.034-.052.087-.136.119-.187.079-.129.177-.28.227-.354s.107-.159.16-.243c.02-.031.055-.081.078-.113.054-.073.148-.2.222-.311.031-.046.079-.111.106-.146l.106-.139c.077-.1.156-.2.205-.263l.1-.123c.1-.128.513-.618.609-.723.443-.483.716-.763,1.085-1.111.307-.289.288-.272.418-.384.062-.053.121-.106.13-.117s.09-.081.18-.157c.2-.164.227-.191.279-.238.022-.02.067-.057.1-.082s.073-.057.088-.071.045-.038.066-.053l.17-.132c.181-.142.439-.337.53-.4.15-.1.193-.135.327-.233.075-.055.139-.1.142-.1s.075-.046.16-.1l.18-.119.187-.124c.089-.059.226-.148.305-.2l.183-.113c.139-.088.563-.333.745-.43.128-.069.243-.131.418-.227.124-.068.705-.358.917-.457.163-.076.389-.18.45-.207l.083-.038c.014-.007.084-.036.156-.065s.141-.058.156-.065.084-.037.156-.066l.179-.074c.051-.022.082-.035.2-.082.079-.031.17-.07.217-.093a.159.159,0,0,1,.058-.014.123.123,0,0,0,.062-.024.127.127,0,0,1,.061-.024.157.157,0,0,0,.057-.015c.016-.008.058-.026.094-.039.147-.055.214-.081.241-.1a.148.148,0,0,1,.058-.015.143.143,0,0,0,.066-.026c.037-.026.1-.019.1.011,0,.009-.022.024-.049.033s-.049.024-.049.032a.017.017,0,0,1-.018.015,2.4,2.4,0,0,0-.293.164.48.48,0,0,1-.048.027c-.052.024-.349.224-.547.368a8.945,8.945,0,0,0-1.123.963,10.85,10.85,0,0,0-.8.95c-.035.049-.08.112-.1.138a1.148,1.148,0,0,0-.073.11.693.693,0,0,1-.054.083,1.122,1.122,0,0,0-.071.109l-.114.188c-.034.055-.083.141-.109.19-.173.33-.256.5-.3.6-.026.063-.073.174-.1.246-.063.143-.065.152-.042.188.013.02.025.014.07-.033.1-.109.4-.381.6-.555.068-.058.126-.11.131-.116s.155-.133.44-.368c.065-.053.263-.206.44-.339l.339-.255.131-.091.316-.217c.111-.076.206-.139.211-.139a.373.373,0,0,0,.069-.045c.033-.025.074-.054.092-.065.116-.07.3-.181.333-.205s.058-.036.076-.045.055-.031.082-.049.064-.04.082-.049.07-.039.115-.067.1-.061.131-.074.075-.04.106-.059c.188-.113.8-.427,1.04-.537l.229-.107c.063-.03.15-.07.192-.089.34-.149.376-.168.385-.2s.064-.058.178-.112a1.82,1.82,0,0,1,.185-.08.238.238,0,0,0,.061-.023c.025-.013.068-.032.1-.043s.07-.03.1-.042a.22.22,0,0,1,.068-.023.219.219,0,0,0,.068-.023,1.928,1.928,0,0,1,.2-.083c.041-.016.085-.034.1-.041a.44.44,0,0,1,.078-.024.129.129,0,0,0,.062-.027.051.051,0,0,1,.039-.015.215.215,0,0,0,.077-.025.216.216,0,0,1,.075-.025.048.048,0,0,0,.038-.017.067.067,0,0,1,.049-.016.067.067,0,0,0,.048-.014.1.1,0,0,1,.054-.023.933.933,0,0,0,.188-.063.144.144,0,0,1,.053-.014.284.284,0,0,0,.078-.023,1.178,1.178,0,0,1,.127-.043c.04-.011.126-.038.191-.059a.838.838,0,0,1,.15-.039.057.057,0,0,0,.043-.016.059.059,0,0,1,.045-.016.692.692,0,0,0,.193-.053.811.811,0,0,1,.1-.031l.131-.032c.038-.009.092-.021.119-.026a.445.445,0,0,0,.082-.022.418.418,0,0,1,.082-.022c.027,0,.082-.017.123-.027l.143-.034.139-.031.16-.034.164-.034.156-.032.156-.031c.128-.026.265-.05.434-.075l.262-.042c.054-.01.128-.02.164-.023s.121-.014.188-.025.152-.022.188-.025l.3-.03c.333-.034.9-.075,1.178-.085.462-.016,1.72,0,1.755.018.007,0,.125.014.263.023a5.337,5.337,0,0,1,.594.05c.045.009.17.023.278.031a2.7,2.7,0,0,1,.27.032c.04.009.173.029.295.044s.324.048.45.074.336.066.467.09.315.061.409.084.209.048.254.056c.142.027.879.234,1.105.31.077.026.255.081.4.123s.33.1.417.138.212.079.275.1c.13.042.53.2.761.3.086.037.2.084.258.105s.147.061.2.089a2.3,2.3,0,0,0,.217.092,1.581,1.581,0,0,1,.2.09,1,1,0,0,0,.172.074,1.625,1.625,0,0,1,.21.087,1.808,1.808,0,0,0,.188.083,5.37,5.37,0,0,1,.524.248,5.81,5.81,0,0,1,.819.493,4.4,4.4,0,0,1,.4.315c.218.193.234.224.133.262l-.172.065c-.063.024-.155.058-.2.074s-.112.039-.139.05l-.082.032-.095.039a.323.323,0,0,1-.091.027.075.075,0,0,0-.044.014.7.7,0,0,1-.122.051,1,1,0,0,0-.223.087.07.07,0,0,1-.041.011.648.648,0,0,0-.182.068.162.162,0,0,1-.06.014.054.054,0,0,0-.041.014.489.489,0,0,1-.12.051.687.687,0,0,0-.127.052.074.074,0,0,1-.044.015.254.254,0,0,0-.083.027c-.1.05-.111.055-.135.055a.216.216,0,0,0-.07.023c-.026.013-.076.036-.112.05l-.2.081-.164.066c-.063.025-.161.066-.217.092a1.082,1.082,0,0,1-.112.047,2.933,2.933,0,0,0-.29.129c-.061.028-.114.051-.118.051s-.464.217-.566.27c-.17.088-.374.2-.458.242l-.179.1a8.334,8.334,0,0,0-1.016.678l-.115.1a3.715,3.715,0,0,0-.435.45c-.018.056.026.084.1.064a1.148,1.148,0,0,1,.242-.037.156.156,0,0,0,.06-.015.414.414,0,0,1,.091-.024c.025,0,.105-.021.177-.04.135-.036.21-.055.315-.081a2.1,2.1,0,0,0,.25-.071.769.769,0,0,1,.1-.03l.131-.032c.041-.01.1-.022.127-.027a.124.124,0,0,0,.062-.023.071.071,0,0,1,.05-.015.175.175,0,0,0,.07-.016.3.3,0,0,1,.072-.023c.024,0,.069-.016.1-.025l.112-.034a.392.392,0,0,1,.089-.016.059.059,0,0,0,.045-.016.06.06,0,0,1,.045-.016.79.79,0,0,0,.2-.052,1.746,1.746,0,0,1,.233-.057.124.124,0,0,0,.062-.023.1.1,0,0,1,.064-.015.1.1,0,0,0,.064-.014.122.122,0,0,1,.062-.023,1.433,1.433,0,0,0,.143-.036c.05-.015.116-.034.147-.042l.123-.03.131-.032c.036-.008.106-.028.156-.042.1-.029.183-.051.287-.074l.139-.033c.041-.01.1-.022.123-.026a.435.435,0,0,0,.082-.023.44.44,0,0,1,.082-.023c.046-.008.1-.019.278-.059.245-.055.318-.07.475-.1l.18-.034c.124-.024.427-.062.561-.07.094-.006.119,0,.119.015a.792.792,0,0,1-.151.205c-.012.014-.057.08-.1.147l-.143.219a.57.57,0,0,0-.063.113.209.209,0,0,1-.039.067,1.239,1.239,0,0,0-.083.133c-.024.045-.077.137-.117.2s-.095.163-.122.213-.082.145-.122.213-.1.163-.123.213-.083.145-.123.213-.092.16-.116.2a1.272,1.272,0,0,1-.083.134.225.225,0,0,0-.039.068.579.579,0,0,1-.063.112c-.034.053-.084.132-.111.177l-.089.149-.09.154a1.54,1.54,0,0,1-.094.143.411.411,0,0,0-.056.093.651.651,0,0,1-.062.111c-.028.042-.066.1-.084.13l-.082.13c-.027.042-.064.1-.082.13s-.056.086-.085.125a1.316,1.316,0,0,0-.086.133,1.039,1.039,0,0,1-.064.1c-.044.059-.217.319-.256.384a.705.705,0,0,1-.065.091.717.717,0,0,0-.065.09,1.678,1.678,0,0,1-.178.252.072.072,0,0,0-.027.039.225.225,0,0,1-.045.07c-.043.052-.126.165-.16.219-.009.014-.038.053-.065.086s-.069.088-.093.123c-.067.1-.2.272-.229.309-.049.058-.135.167-.193.245-.031.042-.107.137-.168.211l-.156.189c-.055.066-.086.1-.3.355-.092.108-.183.212-.2.231s-.079.085-.133.147-.142.161-.2.219c-.134.145-.879.89-.991.992l-.228.2c-.076.068-.153.138-.171.156-.113.112-1.057.866-1.121.9-.014.007-.081.052-.149.1-.251.183-.405.288-.565.386l-.131.082c-.076.049-.519.316-.573.344l-.131.073c-.1.058-.84.427-.941.471l-.147.066c-.05.022-.167.072-.262.11l-.221.09c-.027.012-.082.032-.123.046s-.1.034-.123.044c-.086.035-.217.081-.262.092a.641.641,0,0,0-.065.021c-.018.007-.077.027-.131.043a.62.62,0,0,0-.114.043.122.122,0,0,1-.06.013.077.077,0,0,0-.055.016.067.067,0,0,1-.05.016.3.3,0,0,0-.093.023,1,1,0,0,1-.123.041l-.131.036c-.091.026-.3-.032-1.084-.3a13.311,13.311,0,0,1-2.006-.86l-.246-.132c-.045-.024-.115-.065-.156-.09l-.156-.1c-.172-.108-.395-.261-.533-.366l-.131-.1a6.445,6.445,0,0,1-.563-.518,3.333,3.333,0,0,1-.475-.65c-.046-.087-.087-.138-.1-.124s.009.094.1.34a7.742,7.742,0,0,0,2.087,3.11,5.848,5.848,0,0,0,.753.56,5.412,5.412,0,0,0,.7.365c.054.021.161.065.237.1a6.055,6.055,0,0,0,1.284.321.842.842,0,0,1,.2.032c.01.009-.028.057-.1.127-.11.108-.262.272-.355.383-.113.135-.255.31-.307.38-.031.042-.083.109-.115.148s-.083.109-.115.156-.077.108-.1.137a.845.845,0,0,0-.07.1c-.015.027-.06.093-.1.147a1.835,1.835,0,0,0-.108.164.972.972,0,0,1-.07.11c-.019.024-.064.093-.1.153s-.09.145-.119.19a.882.882,0,0,0-.068.118.95.95,0,0,1-.073.124.485.485,0,0,0-.059.1.176.176,0,0,1-.031.06c-.058.082-.509.961-.509.992a.915.915,0,0,1-.057.131,8.17,8.17,0,0,0-.312.771l-.146.416a8.988,8.988,0,0,0-.345,1.443c-.023.157-.045.3-.05.31a9.021,9.021,0,0,0-.062,1.155,7.052,7.052,0,0,0,.184,1.58,5.663,5.663,0,0,0,.2.693,6.074,6.074,0,0,0,.373.911,9.607,9.607,0,0,0,2.7,3.256l.114.092c.044.036.1.077.116.09s.12.087.222.164.207.154.233.172l.117.081c.085.059.326.22.45.3l.151.1c.092.06.418.257.529.32l.221.126c.068.039.215.118.328.176s.237.125.276.147a4.309,4.309,0,0,0,.6.209c.247.072,1.14.26,1.362.286.08.009.241.031.358.049a15.759,15.759,0,0,0,2.358.138l.622-.007c.09,0,1.146-.081,1.179-.09s.308-.044.5-.065c.032,0,.1-.013.156-.022l.385-.059c.066-.009.261-.047.479-.091l.156-.031.151-.032.156-.033.156-.034.139-.032.131-.031.139-.034c.125-.03.185-.047.278-.075a1.368,1.368,0,0,1,.143-.036.12.12,0,0,0,.062-.022.067.067,0,0,1,.048-.015.254.254,0,0,0,.077-.015c.021-.008.082-.027.136-.043a1.144,1.144,0,0,0,.127-.043.181.181,0,0,1,.069-.014.069.069,0,0,0,.049-.015.1.1,0,0,1,.054-.023.78.78,0,0,0,.1-.029l.09-.032.09-.032a.775.775,0,0,1,.1-.029.1.1,0,0,0,.054-.023.063.063,0,0,1,.046-.014.134.134,0,0,0,.069-.024.136.136,0,0,1,.068-.025.063.063,0,0,0,.046-.017.063.063,0,0,1,.047-.016.135.135,0,0,0,.069-.024.127.127,0,0,1,.061-.025.155.155,0,0,0,.057-.015c.016-.008.062-.028.1-.043l.123-.049c.027-.011.088-.033.135-.049a.318.318,0,0,0,.1-.042.054.054,0,0,1,.041-.014.15.15,0,0,0,.06-.016c.016-.009.058-.028.094-.043l.115-.048.09-.038c.022-.009.089-.04.149-.067a1.145,1.145,0,0,1,.117-.051c.005,0,.068-.026.138-.058l.2-.092c.13-.059.955-.471,1.056-.527l.2-.112c.222-.12.3-.167.364-.2a.465.465,0,0,1,.068-.038c.016,0,.444-.259.726-.439l.327-.208c.016-.009.055-.037.088-.061a.377.377,0,0,1,.068-.045c.02,0,.562-.375.863-.6.1-.072.194-.142.214-.156s.093-.071.163-.127a.818.818,0,0,1,.144-.1.113.113,0,0,0,.051-.036c.027-.029.033-.031.033-.009a.053.053,0,0,1-.021.04.233.233,0,0,0-.049.07,1.377,1.377,0,0,1-.086.139l-.111.16c-.029.043-.077.109-.106.147a.365.365,0,0,0-.053.084.235.235,0,0,1-.045.067.907.907,0,0,0-.073.1c-.016.026-.054.081-.086.121s-.083.11-.115.156-.083.115-.115.155-.074.1-.094.125-.07.094-.111.145-.088.115-.106.139c-.056.078-.127.168-.221.282-.05.061-.135.166-.189.234s-.12.149-.147.179l-.147.166c-.126.143-.474.49-.712.71-.1.094-.2.187-.22.206-.057.057-.6.551-.695.629-.048.041-.107.092-.132.115-.068.062-.2.179-.306.27-.052.045-.114.1-.137.123s-.09.081-.148.13l-.139.118c-.129.116-.227.2-.442.375l-.27.223-.139.113a.975.975,0,0,0-.128.115.043.043,0,0,1-.029.023,1.493,1.493,0,0,0-.186.135c-.349.277-.5.4-.523.4a1.587,1.587,0,0,0-.143.106c-.068.055-.141.111-.161.124s-.054.037-.075.053a.162.162,0,0,1-.049.029.314.314,0,0,0-.071.046c-.033.026-.111.082-.174.126l-.188.131a1.106,1.106,0,0,1-.1.063.791.791,0,0,0-.074.044.771.771,0,0,1-.086.049c-.02.009-.037.023-.037.031s-.013.019-.029.025a.47.47,0,0,0-.078.043c-.027.018-.064.04-.082.05s-.055.031-.082.048l-.085.053-.188.114c-.084.051-.2.116-.25.146-.153.083-.177.1-.229.131-.027.017-.064.039-.082.049l-.131.072c-.054.03-.2.108-.327.173-.212.109-.252.13-.319.167-.035.019-.157.076-.262.123-.049.022-.1.047-.115.055a.328.328,0,0,1-.049.025.338.338,0,0,0-.049.025.344.344,0,0,1-.049.025c-.1.04-.181.074-.412.178a.655.655,0,0,1-.109.042.228.228,0,0,0-.062.023c-.026.013-.076.036-.112.052l-.094.042a.16.16,0,0,1-.059.014.076.076,0,0,0-.051.025.086.086,0,0,1-.058.025.065.065,0,0,0-.048.016.057.057,0,0,1-.043.016.207.207,0,0,0-.077.023c-.024.013-.077.036-.117.051s-.086.035-.1.043a.139.139,0,0,1-.052.015.215.215,0,0,0-.07.024,1.027,1.027,0,0,1-.141.051.331.331,0,0,0-.1.042.069.069,0,0,1-.049.015.179.179,0,0,0-.069.015.663.663,0,0,1-.1.034.748.748,0,0,0-.12.043.218.218,0,0,1-.072.023.858.858,0,0,0-.192.055.166.166,0,0,1-.063.013.1.1,0,0,0-.053.021.187.187,0,0,1-.087.025.085.085,0,0,0-.059.016.1.1,0,0,1-.065.016.1.1,0,0,0-.065.016.1.1,0,0,1-.065.016.1.1,0,0,0-.066.016.076.076,0,0,1-.054.017.21.21,0,0,0-.085.024.229.229,0,0,1-.093.024.1.1,0,0,0-.062.017.12.12,0,0,1-.074.016.118.118,0,0,0-.074.017.12.12,0,0,1-.074.016.119.119,0,0,0-.074.016.113.113,0,0,1-.071.016.155.155,0,0,0-.077.015.233.233,0,0,1-.085.024l-.139.02a.266.266,0,0,0-.087.024.152.152,0,0,1-.075.012.184.184,0,0,0-.081.012.257.257,0,0,1-.089.018.984.984,0,0,0-.246.038.929.929,0,0,1-.261.033.179.179,0,0,0-.082.014.375.375,0,0,1-.116.024c-.2.02-.28.027-.36.032a.522.522,0,0,0-.107.015,4.544,4.544,0,0,1-.606.052c-.39.025-.638.03-1.269.025a.959.959,0,0,0-.1.008.313.313,0,0,1-.115-.009Zm-.385-34.964a.765.765,0,0,0,.255-.042.1.1,0,0,1,.062-.014.134.134,0,0,0,.069-.014.54.54,0,0,1,.114-.044,1.909,1.909,0,0,0,.471-.251,1.361,1.361,0,0,0,.409-.561,1.427,1.427,0,0,0-.322-1.164,2.92,2.92,0,0,0-1.2-1.052,1.734,1.734,0,0,0-.786.054.75.75,0,0,0-.541.547,3.5,3.5,0,0,0-.079.776c.012.223.041.541.055.6.008.032.023.1.034.156a2.448,2.448,0,0,0,.191.527,1.213,1.213,0,0,0,.381.392,1.365,1.365,0,0,0,.188.063,2.521,2.521,0,0,0,.565.045C315.684,628.435,315.743,628.429,315.784,628.426Zm9.623,26.864c-.038,0-.061-.014-.061-.028a.361.361,0,0,1,.108-.1c.124-.088.645-.508.671-.54a1.028,1.028,0,0,1,.09-.082c.245-.2.93-.872,1.138-1.11l.147-.166c.027-.03.069-.079.093-.109l.147-.181c.057-.07.129-.161.16-.2s.081-.105.111-.141a.311.311,0,0,0,.053-.08.11.11,0,0,1,.032-.046c.03-.03.22-.307.286-.417.017-.028.052-.082.078-.12a.357.357,0,0,0,.047-.082.275.275,0,0,1,.039-.071,6.868,6.868,0,0,0,.377-.728c.021-.054.058-.138.083-.187a8.206,8.206,0,0,0,.281-.8,7.042,7.042,0,0,0,.228-1.343c.012-.221.012-.769,0-.892-.019-.209-.062-.567-.075-.63-.008-.041-.023-.118-.034-.172-.025-.134-.067-.324-.1-.475a9.369,9.369,0,0,0-.505-1.427c-.1-.225-.4-.8-.581-1.1a15.451,15.451,0,0,0-1.306-1.818c-.08-.1-.528-.615-.7-.8-.086-.1-.207-.236-.269-.312-.109-.134-.111-.139-.071-.144a4.194,4.194,0,0,1,.66.161,6.637,6.637,0,0,0,.955.195,7.253,7.253,0,0,1,1.125.263c.339.115.655.233.81.3.086.038.174.075.2.082.043.013.3.136.393.19l.164.09a5.236,5.236,0,0,1,.811.534c.026.021.132.122.238.226a1.885,1.885,0,0,1,.477.663,7.22,7.22,0,0,1,.146.868c.019.194.029.226.069.234.02,0,.036-.028.068-.131a12.618,12.618,0,0,0,.385-2.24c.032-.35.078-1.152.091-1.588.013-.413.013-1.543,0-1.932-.005-.167-.013-.458-.018-.647s-.012-.37-.017-.4-.015-.234-.024-.45a1.43,1.43,0,0,1,.021-.54c.027-.108.044-.147.063-.147a5.919,5.919,0,0,1,.667.727c.04.05.077.1.082.1s.069.082.141.172a13.982,13.982,0,0,1,1.65,2.562,9.945,9.945,0,0,1,.456,1.032c.1.265.173.484.242.7.031.1.1.329.13.475.019.081.046.184.058.229.021.076.062.262.083.377l.026.139c.009.05.023.138.031.2a1.211,1.211,0,0,0,.023.131c.013.036.051.373.068.589a10.632,10.632,0,0,1-.026,1.474c-.009.077-.023.216-.032.311s-.031.264-.048.377-.043.284-.056.38c-.04.29-.222,1.117-.335,1.527-.235.852-.333,1.122-.423,1.156a.086.086,0,0,0-.048.044c0,.016-.028.073-.051.127s-.069.165-.1.246c-.058.14-.146.324-.216.45-.017.031-.053.1-.079.16a.269.269,0,0,1-.065.1c-.01,0-.033.035-.051.078a.5.5,0,0,1-.071.119.322.322,0,0,0-.057.1.184.184,0,0,1-.058.085.141.141,0,0,0-.05.077.275.275,0,0,1-.067.107.2.2,0,0,0-.056.078.274.274,0,0,1-.057.091.361.361,0,0,0-.057.082.354.354,0,0,1-.057.082.314.314,0,0,0-.057.085.181.181,0,0,1-.045.063,1.354,1.354,0,0,0-.157.188.5.5,0,0,1-.057.073c-.021.022-.067.077-.1.122-.094.119-.191.226-.449.5-.021.022-.319.305-.352.335a.2.2,0,0,1-.053.032c-.016.006-.029.017-.029.026a.535.535,0,0,1-.111.1c-.061.048-.152.122-.2.165a.452.452,0,0,1-.111.078.018.018,0,0,0-.019.017c0,.009-.017.024-.037.034a.985.985,0,0,0-.192.122,5.728,5.728,0,0,1-.81.479l-.106.054c-.031.017-.157.077-.221.105s-.272.124-.307.141a.144.144,0,0,1-.051.014.215.215,0,0,0-.07.024.215.215,0,0,1-.075.024.048.048,0,0,0-.038.017.066.066,0,0,1-.049.016.066.066,0,0,0-.048.015.131.131,0,0,1-.062.027.438.438,0,0,0-.078.024c-.014.007-.066.025-.115.04s-.1.034-.123.041-.066.022-.106.033-.092.027-.115.037a.96.96,0,0,1-.094.031l-.106.03-.111.032-.147.043c-.05.015-.116.033-.147.041l-.123.032-.123.033-.147.042a2.472,2.472,0,0,1-.286.067.436.436,0,0,0-.082.023.444.444,0,0,1-.082.023c-.046.008-.1.019-.278.059-.26.058-.363.079-.45.092a.435.435,0,0,0-.09.023.415.415,0,0,1-.09.022c-.032,0-.105.016-.164.028s-.125.022-.147.025l-.131.016a.623.623,0,0,0-.123.025.459.459,0,0,1-.1.022l-.246.034c-.29.043-.525.073-.757.1-.119.013-.222.026-.229.029A.293.293,0,0,1,325.407,655.29ZM305.8,623.628a.02.02,0,0,1,.027-.02c.041.008.047.046.007.046C305.81,623.654,305.8,623.643,305.8,623.628Z" transform="translate(-290.159 -619.061)" fill="#000"/>
  </g>
</svg>
