<svg xmlns="http://www.w3.org/2000/svg" xmlns:xlink="http://www.w3.org/1999/xlink" width="48" height="48" viewBox="0 0 48 48">
  <defs>
    <clipPath id="clip-herbalism">
      <rect width="48" height="48"/>
    </clipPath>
  </defs>
  <g id="herbalism" clip-path="url(#clip-herbalism)">
    <path id="path536" d="M435.748,492.1a7.043,7.043,0,0,0,.673-.347,5.208,5.208,0,0,1,1.621-.443,6.18,6.18,0,0,1,4.8,2.015,4.7,4.7,0,0,1,1.171,1.621,8.176,8.176,0,0,1,.14,2.432,3.756,3.756,0,0,0,.762,2.173,10.31,10.31,0,0,0,2.032,1.878,25.379,25.379,0,0,0,4.64,2.595c.558.252,1.119.5,1.673.759.159.075.305.186.466.254.57-2.94.656-6.191-.939-8.849a8.7,8.7,0,0,0-1.183-1.535,8.064,8.064,0,0,0-1.672-1.3,8.967,8.967,0,0,0-2.363-.99v-.017a5.513,5.513,0,0,1,.949.155,16.981,16.981,0,0,1,1.656.414A10.586,10.586,0,0,1,455.114,496a10.741,10.741,0,0,1,2.317,7.486,11.086,11.086,0,0,1-.363,2.829c.131.04.071.166-.018.225a2.108,2.108,0,0,1-.6.206c-.8.219-1.635.33-2.449.493-2.887.576-5.784,1.033-8.642,1.748a21.944,21.944,0,0,0-2.432.664c-.252.1-.508.194-.759.294a.921.921,0,0,1-.345.121c-.122-.013-.1-.342-.135-.439a10.262,10.262,0,0,0-.58-1.328,11.469,11.469,0,0,0-2.3-3.021,4.162,4.162,0,0,0-1-.808v-.017a5.123,5.123,0,0,1,4.312,2.518h.017a6.475,6.475,0,0,0-1.794-4.81,3.155,3.155,0,0,0-.69-.421,10.8,10.8,0,0,0-1.5-.635,6.707,6.707,0,0,0-5.433.216,5.779,5.779,0,0,0-1.207.924,8.032,8.032,0,0,0-1.351,1.88,10.384,10.384,0,0,0-.593,1.345,3.8,3.8,0,0,0-.23.724,4.474,4.474,0,0,0,.345-.323,2.549,2.549,0,0,1,.914-.539,2.149,2.149,0,0,1,1.984.582,7.925,7.925,0,0,1,1.6,2.005,6.535,6.535,0,0,0,.97,1.431,5.343,5.343,0,0,0,1.794,1.069c.492.19,1,.222,1.329.674a1.943,1.943,0,0,1,.188,1.69,6.762,6.762,0,0,1-1.533,2.518c-.226.262-.447.531-.692.776a4.472,4.472,0,0,1-1.138.949,9.384,9.384,0,0,1,.589.828,10.677,10.677,0,0,1,1.158,3.778,9.611,9.611,0,0,1,.1,1.656,10.777,10.777,0,0,1-.245,1.966c-.048.209-.1.415-.162.621-.02.072-.084.179-.062.256.045.155.335.314.452.418.44.39.9.753,1.363,1.12a28.055,28.055,0,0,0,4.123,2.817,6.4,6.4,0,0,0,2.415.892,3.173,3.173,0,0,1-.071-1.173,1.922,1.922,0,0,1,.22-.5c.041-.068.14-.156.123-.241a2.135,2.135,0,0,0-.2-.414c-.156-.339-.318-.676-.47-1.018-.409-.925-.821-1.848-1.22-2.777-.183-.427-.407-.853-.555-1.294a4.233,4.233,0,0,1-.106-.88c-.051-.512-.113-1.024-.175-1.535s-.117-1-.17-1.5a1.759,1.759,0,0,1-.055-.6,1.264,1.264,0,0,1,.241-.31c.2-.243.4-.481.6-.724.689-.848,1.41-1.674,2.082-2.536.227-.291.464-.574.695-.862.084-.105.19-.3.321-.352a4,4,0,0,1,.914-.117,13.2,13.2,0,0,1,2.156-.033,14.574,14.574,0,0,1,7.331,2.364,13.383,13.383,0,0,1,1.328,1.017,3.074,3.074,0,0,1,.5.484,1.878,1.878,0,0,1-.552-.279c-.322-.185-.649-.368-.983-.53a13.66,13.66,0,0,0-3.036-1.056,10.865,10.865,0,0,0-4.364.018,9.509,9.509,0,0,0-1.121.289,1.152,1.152,0,0,0-.4.145c-.059.056-.029.234-.027.309a8.425,8.425,0,0,0,.086.931,6.487,6.487,0,0,0,1.57,3.726,3.769,3.769,0,0,0,1.328.879,17.873,17.873,0,0,0,2.5.543,24.723,24.723,0,0,1,5.761,1.869c1.221.61,2.646,1.541,2.856,3.006a2.545,2.545,0,0,1-.256,1.414,3.508,3.508,0,0,0-.375.707c.34-.061.673-.443.913-.67a11.754,11.754,0,0,0,1.906-2.366,9.087,9.087,0,0,0,1.279-3.312,14.253,14.253,0,0,0,.128-2.26,14.607,14.607,0,0,0-.4-3.536,6.746,6.746,0,0,0-2.223-3.831c-.217-.165-.53,0-.776.068a7.494,7.494,0,0,1-6.658-1.533,11.13,11.13,0,0,1,1.173-.177c.914-.123,1.824-.227,2.743-.29a7.213,7.213,0,0,1,2.242.071,6.293,6.293,0,0,0-.034-.776,13.794,13.794,0,0,1,.241-2.363,2.335,2.335,0,0,1,.466-1.138c-.012.23.338.039.448-.011.459-.207.891-.469,1.328-.718.338-.193.67-.4,1-.606a2.1,2.1,0,0,1,.466-.279,2.7,2.7,0,0,1,.552-.043c.448-.031.9-.049,1.345-.068.718-.031,1.437-.077,2.156-.086.588-.007,1.174.033,1.759.034a7.69,7.69,0,0,1-.186-1.035,3.362,3.362,0,0,0-1.608-2.555,2.563,2.563,0,0,0-.845,0,9.207,9.207,0,0,1-2.329-.244,1.218,1.218,0,0,1-.862-.55l-.586.6-1.4,1.356-.569.532a5.728,5.728,0,0,1,.651-2.6,1.729,1.729,0,0,1,.781-.794,6.179,6.179,0,0,0-.5-.776c-.3-.486-.587-.984-.866-1.483a33.059,33.059,0,0,1-2.338-5.089,9.62,9.62,0,0,1-.526-2.26,2.713,2.713,0,0,1,.106-1.19c-.277-.082-.666.247-.88.395a8.729,8.729,0,0,0-1.592,1.382,3.074,3.074,0,0,0-.478.6c-.476-.558-.865-1.188-1.35-1.742a12.442,12.442,0,0,0-4.238-3.245,9.828,9.828,0,0,0-2.018-.663c-3.75-.755-7.437.6-10.608,2.548a26.111,26.111,0,0,0-2.38,1.663,5.937,5.937,0,0,0-.983.8m11.8.224-.017.017.017-.017m-10.125,12.092-.035.069h-.017l-.035-.069Z" transform="translate(-426.341 -485.124)" fill="#000"/>
  </g>
</svg>
