<svg xmlns="http://www.w3.org/2000/svg" width="24" height="24" viewBox="0 0 24 24">
    <defs>
        <clipPath id="clip-HellsGate">
            <rect width="24" height="24" />
        </clipPath>
    </defs>
    <g id="HellsGate" clip-path="url(#clip-HellsGate)">
        <path id="Union_8" data-name="Union 8"
            d="M-2465.926-682a9.5,9.5,0,0,1-.809.513,3.173,3.173,0,0,1-4.075-.513c-2.2-2.328-1.283-15.437,1.2-17.39a4.282,4.282,0,0,1,3.309-.651,9.361,9.361,0,0,0,1.374.041,4.121,4.121,0,0,1-1.438,1s1.885,1.776.444,4.985c.057-.269-.473-4-2.007-3.986-1.579.016-3.313,13.094-1,14,1.208.473,2.075-1.245,2.432-2.963.326-1.571.225-3.142-.432-3.037a3.3,3.3,0,0,0-2,1c0-.023,1.043-3.749,2.789-3.563s1.97,1.578,2,2.563-.547,3.984,1,5c1.032,2.609-3.524,7.938-4.79,8A14.127,14.127,0,0,0-2465.926-682Zm-14.589,4.12c-2.86-2.172-1.381-5.365-1.177-8.24a16.069,16.069,0,0,1-1-4.765,5.457,5.457,0,0,0,1.317,1c-.125-.07-.216-9.579-1.617-11.12,0,0,5.448,4.323,5.479,9.12a.92.92,0,0,0,1-1c.063-1.3.151-1.974-.8-2.974s-.174-3,.8-3.026c1.7-.055,3-2,3-2s.992,1.992,0,7a47,47,0,0,0-.594,5c-.109,3.807.8,3.328,1.557,4.125a1.582,1.582,0,0,1,.037,1.875s-.029-.992-.623-1.086a3.488,3.488,0,0,1-.377,3.18c0-.109-.49-2.515-2.249-2.922-1.329-.391-.753,1.828-.753,1.828s-2.249-.836-.756-3.344c.93-1.193.756-3.953.756-3.953l-1,.094a39.338,39.338,0,0,1-1.3,4.922c-.526,1.162-3.2,6.719,4.3,5.281l.005,0-.005,0a6.221,6.221,0,0,1-3.816,1.76A3.541,3.541,0,0,1-2480.515-677.88Zm6.008-1h0Zm0,0,0,0Zm0,0h0Zm.006,0-.006,0Zm0,0,0,0Zm.017-.012-.017.012Zm0,0,0,0Zm.02-.015-.02.015Zm0,0,0,0Zm.058-.043-.058.043Zm0,0h0Zm0,0Zm8.472-15.044c0,.008,0,.013-.007.015Zm-17.08-6.965h0Zm0,0h0Zm0,0h0Zm0,0h0Zm0,0h0Zm0,0h0Zm0,0v0Zm0,0v0Zm0,0h0Zm0,0v0Zm0,0v0Zm0,0h0Zm0,0v0Zm0,0h0Zm0,0v0Z"
            transform="translate(2485 701)" fill="#000" />
    </g>
</svg>
