<svg xmlns="http://www.w3.org/2000/svg" xmlns:xlink="http://www.w3.org/1999/xlink" width="48" height="48" viewBox="0 0 48 48">
  <defs>
    <clipPath id="clip-mining">
      <rect width="48" height="48"/>
    </clipPath>
  </defs>
  <g id="mining" clip-path="url(#clip-mining)">
    <path id="path420" d="M922.155,806.04a6.761,6.761,0,0,1-.805-.335,12.592,12.592,0,0,1-1.467-.907c-.3-.219-.81-.62-.81-.639s.358-1.05.8-2.311.794-2.294.792-2.3-.569.852-1.26,1.9-1.26,1.9-1.265,1.9-.175-.161-.376-.359l-.366-.359,3.486-8.6c1.917-4.732,3.493-8.615,3.5-8.628s.041.025.109.155a16.893,16.893,0,0,0,2.182,3.258,7.96,7.96,0,0,0,.983.931c.036.025.036.026-.03.164-.086.179-.289.712-.573,1.5-.365,1.014-1.11,3.152-1.1,3.16s3.52-4.158,3.591-4.248c.018-.024.044-.023.238.01a16.68,16.68,0,0,0,3.444.263,2.726,2.726,0,0,1,.3-.013c.012.012-11.074,15.533-11.1,15.538a2.077,2.077,0,0,1-.272-.08Zm27.185-5.277a2.222,2.222,0,0,0,.462-1.063,4.778,4.778,0,0,0-.011-1.195,6.852,6.852,0,0,0-.7-2.009c-1.438-2.848-4.919-6.239-10.215-9.949a7.592,7.592,0,0,0-.769-.524s-.343.618-.755,1.366-.761,1.372-.777,1.388a6.364,6.364,0,0,1-.87.29,1.291,1.291,0,0,1-.32.05c-.065,0-.232.009-.37.022a14.573,14.573,0,0,1-1.766-.007,10.365,10.365,0,0,1-2.034-.383,11.616,11.616,0,0,1-6.536-5.411l-.056-.11.039-.079c.088-.179.843-1.816,1.2-2.6,1.265-2.787,2.277-5.152,2.819-6.591l.123-.326-.056-.19a2.042,2.042,0,0,0-.066-.2c-.006-.007-.723,1.042-1.594,2.33l-1.584,2.343-.013-.157a10.882,10.882,0,0,0-.239-1.654,10,10,0,0,0-3.35-5.543,10.893,10.893,0,0,0-2.97-1.731,5.71,5.71,0,0,0-.849-.285.053.053,0,0,1-.051-.017c-.019-.023-.015-.025.028-.017.06.011.048.029.331-.47a9.47,9.47,0,0,1,1.04-1.505c.3-.354.276-.332.392-.352a16.333,16.333,0,0,1,2.935.008,32.017,32.017,0,0,1,10.828,2.958l.24.114-.062.049a.3.3,0,0,1-.2.061,1.321,1.321,0,0,0-.9.482,2.507,2.507,0,0,0-.429.691,4.856,4.856,0,0,0-.436,1.435,5.342,5.342,0,0,0,.009,1.07,5.649,5.649,0,0,0,2.331,3.529,6.954,6.954,0,0,0,5.9,1.6,6.01,6.01,0,0,0,1.783-.622.438.438,0,0,1,.222-.112,1.573,1.573,0,0,0,.792-.544,2.806,2.806,0,0,0,.445-.517,2.653,2.653,0,0,0,.151-.247c.006-.019.017-.034.025-.034s.217.206.464.457a43.772,43.772,0,0,1,6.016,7.767,56.93,56.93,0,0,1,4.333,8.716l.186.465-.079.164c-.306.633-1.36,2.362-2.262,3.711a20.949,20.949,0,0,1-2.383,3.1C949.494,800.7,949.2,800.914,949.34,800.763Zm-10.39-24.1a6.267,6.267,0,0,1-2.459-.658,5.417,5.417,0,0,1-3.153-3.99,3.969,3.969,0,0,1,.043-1.015,3.019,3.019,0,0,1,1.362-1.944.9.9,0,0,1,.114-.066s-.018.082-.045.177a4.931,4.931,0,0,0-.168,1.428,4.021,4.021,0,0,0,.426,1.706,4.532,4.532,0,0,0,.938,1.264,2.958,2.958,0,0,0,.474.406l-.076-.12a3.759,3.759,0,0,1-.3-.65,3.36,3.36,0,0,1-.138-1.947,2.358,2.358,0,0,1,.325-.653,2.671,2.671,0,0,1,1.678-.923,4.024,4.024,0,0,1,.956-.094,3.519,3.519,0,0,1,1,.12,4.088,4.088,0,0,1,2.8,2.555,3.616,3.616,0,0,1,.2.86c0,.031.007.053.015.048a1.481,1.481,0,0,1,.019.516,3.2,3.2,0,0,1-2.757,2.883A5.984,5.984,0,0,1,938.95,776.661Z" transform="translate(-909.394 -762.12)" fill="#000"/>
  </g>
</svg>
