<svg xmlns="http://www.w3.org/2000/svg" width="24" height="24" viewBox="0 0 24 24">
    <defs>
        <clipPath id="clip-pvp">
            <rect width="24" height="24" />
        </clipPath>
    </defs>
    <g id="pvp" clip-path="url(#clip-pvp)">
        <path id="Path_146" data-name="Path 146"
            d="M-2476.517-779.863a7.133,7.133,0,0,1-.628-.714A1.74,1.74,0,0,0-2476.4-782a2.6,2.6,0,0,0-.763-1.324l-3.781,3.781a.97.97,0,0,1-.691.286.97.97,0,0,1-.691-.286.97.97,0,0,1-.286-.691.969.969,0,0,1,.286-.691l3.781-3.781a2.382,2.382,0,0,0-1.439-.769,1.844,1.844,0,0,0-1.3.748,10.064,10.064,0,0,1-1.362-1.319c-.019-.031-.026-.052-.021-.063a3.354,3.354,0,0,1,2.427-1.059,5.436,5.436,0,0,1,2.964,1.082,2.146,2.146,0,0,0,.168-2.743c-.021-.027-.032-.04-.03-.043.248-.234.507-.471.77-.707,1.147,1.479,2.659,3.253,3.725,4.48-.126.138-.24.26-.347.373-.008,0-.021-.011-.044-.028a1.941,1.941,0,0,0-.282-.194,1.776,1.776,0,0,0-.871-.223,2.816,2.816,0,0,0-1.59.584c.831,1.191,1.938,3.476.023,5.391l-.009,0A3.857,3.857,0,0,1-2476.517-779.863Zm13.23.29-3.781-3.781c-.8.9-1.116,1.6.047,2.677,0,.056-1.2,1.375-1.316,1.316-1.913-1.913-.895-4.111-.109-5.259a2.178,2.178,0,0,0-2.421-.406c-.2.11-.3.219-.3.2a74.856,74.856,0,0,1-5.847-7.263l-2.352,2.352,1.69,1.691a1.1,1.1,0,0,1,0,.624v0l0,.014a5.573,5.573,0,0,0-2.062-.639l-1.6-1.6,3.541-3.541c-2.586-3.649-4.528-6.747-4.528-6.747s3.1,1.942,6.747,4.528l3.447-3.448,3.392,3.392c3.642-2.534,6.765-4.448,6.8-4.472a.215.215,0,0,1-.013.023c-.4.643-2.18,3.506-4.459,6.78l3.485,3.485-1.69,1.691a6.074,6.074,0,0,0-2.043.649h0s0-.013,0-.027v0a1.737,1.737,0,0,1,.009-.644l1.757-1.757-2.289-2.288c-.292.411-.591.826-.894,1.24h0c-.862-.715-2.01-1.625-3.411-2.7.549-.406,1.1-.8,1.647-1.193l-2.289-2.289-2.352,2.352a74.921,74.921,0,0,1,7.264,5.847c.05,0-1.067.94.2,2.723,1.148-.786,3.346-1.8,5.26.109.06.113-1.26,1.316-1.315,1.315-1.074-1.162-1.78-.846-2.677-.046l3.781,3.781a.955.955,0,0,1,.033,1.349.9.9,0,0,1-.644.263A1,1,0,0,1-2463.287-779.573Zm-8.847-.861-1.678-1.678a6.643,6.643,0,0,0-.647-2.122.755.755,0,0,1,.293-.059.953.953,0,0,1,.288.048l1.744,1.745,1.71-1.709a.962.962,0,0,1,.391-.089.8.8,0,0,1,.313.064,6.684,6.684,0,0,0-.634,2.021l-1.779,1.779h0Z"
            transform="translate(2484.009 801.009)" fill="#000" />
    </g>
</svg>
