<?xml version="1.0" encoding="UTF-8"?>
<svg xmlns="http://www.w3.org/2000/svg" width="125pt" height="125pt" viewBox="0 0 125 125" version="1.1">
    <g id="surface1">
        <path style=" stroke:none;fill-rule:nonzero;fill:rgb(0%,0%,0%);fill-opacity:1;"
            d="M 62.472656 125 L 61.878906 125 L 61.878906 124.964844 C 59.308594 124.558594 57.378906 122.394531 57.269531 119.792969 L 57.171875 94.46875 L 57.269531 88.542969 C 57.0625 88.542969 56.863281 88.542969 56.660156 88.542969 C 52.257812 88.519531 48.070312 86.625 45.140625 83.332031 C 43.714844 81.789062 42.542969 80.03125 41.65625 78.125 C 41.65625 78.125 41.65625 78.125 41.65625 78.097656 L 57.28125 78.097656 L 57.21875 77.980469 C 56.046875 75.597656 52.214844 67.828125 52.074219 67.6875 C 53.609375 65.019531 54.511719 62.03125 54.707031 58.957031 C 39.75 66.707031 37.785156 76.464844 37.949219 81.589844 C 39.089844 83.050781 40.332031 84.511719 41.65625 85.917969 C 42.671875 87 43.671875 88 44.644531 89 C 48.8125 93.234375 52.128906 96.582031 52.40625 101.089844 C 52.714844 105.953125 49.394531 111.71875 41.65625 119.765625 C 41.65625 119.707031 41.765625 119.53125 41.890625 119.292969 C 45.214844 113.910156 46.113281 107.375 44.363281 101.296875 C 41.964844 95.394531 37.207031 90.761719 31.238281 88.519531 C 24.601562 85.042969 19.339844 79.417969 16.3125 72.5625 C 14.285156 67.707031 14.039062 62.292969 15.613281 57.269531 C 18.636719 47.453125 23.996094 38.515625 31.238281 31.230469 C 31.199219 31.230469 31.109375 31.277344 30.957031 31.316406 C 25.75 32.828125 12.890625 38.886719 5.21875 62.464844 C 5.046875 55.109375 6.199219 47.785156 8.625 40.839844 C 10.714844 34.550781 14.5 28.964844 19.5625 24.691406 C 23.105469 22.21875 27.113281 20.488281 31.34375 19.609375 C 38.515625 17.613281 45.292969 15.730469 46.90625 5.160156 C 47.332031 6.636719 47.613281 8.152344 47.746094 9.683594 C 49.140625 21.386719 45.265625 33.105469 37.160156 41.667969 C 30.359375 48.132812 27.667969 57.816406 30.160156 66.863281 C 34.878906 55.507812 44.460938 46.878906 56.25 43.371094 C 57.25 27.886719 57.261719 10.59375 57.261719 10.417969 L 62.113281 0.707031 L 62.457031 0.015625 L 62.511719 0.015625 L 63.03125 1.097656 L 63.03125 1.140625 L 67.671875 10.417969 C 67.671875 10.589844 67.671875 27.886719 68.683594 43.371094 C 80.46875 46.878906 90.050781 55.507812 94.769531 66.863281 C 97.261719 57.816406 94.570312 48.132812 87.769531 41.667969 C 79.703125 33.105469 75.847656 21.410156 77.246094 9.730469 C 77.378906 8.199219 77.660156 6.683594 78.089844 5.207031 C 79.707031 15.777344 86.480469 17.660156 93.652344 19.65625 C 97.882812 20.535156 101.890625 22.265625 105.433594 24.738281 C 110.496094 29.011719 114.28125 34.597656 116.371094 40.886719 C 118.792969 47.832031 119.949219 55.15625 119.777344 62.511719 C 112.097656 38.9375 99.214844 32.875 94.03125 31.363281 L 93.75 31.277344 C 100.992188 38.5625 106.355469 47.5 109.375 57.316406 C 110.949219 62.339844 110.703125 67.753906 108.675781 72.609375 C 105.652344 79.449219 100.398438 85.066406 93.777344 88.542969 C 87.8125 90.785156 83.054688 95.414062 80.652344 101.316406 C 78.90625 107.398438 79.800781 113.929688 83.125 119.3125 C 83.25 119.550781 83.34375 119.730469 83.359375 119.785156 C 75.613281 111.734375 72.300781 105.972656 72.605469 101.109375 C 72.886719 96.597656 76.1875 93.253906 80.363281 89.015625 C 81.339844 88.03125 82.339844 87.015625 83.355469 85.933594 C 84.671875 84.527344 85.921875 83.074219 87.058594 81.605469 C 87.21875 76.480469 85.253906 66.722656 70.296875 58.972656 C 70.496094 62.046875 71.398438 65.035156 72.933594 67.703125 C 72.792969 67.84375 68.957031 75.613281 67.785156 77.996094 L 67.722656 78.121094 L 83.347656 78.121094 C 82.464844 80.027344 81.289062 81.78125 79.863281 83.328125 C 76.9375 86.617188 72.75 88.511719 68.34375 88.535156 L 67.734375 88.535156 L 67.832031 94.464844 L 67.734375 119.785156 C 67.628906 122.371094 65.726562 124.523438 63.175781 124.953125 L 63.175781 125 Z M 23.308594 116.285156 C 22.855469 115.894531 22.457031 115.5625 22.113281 115.316406 C 28.9375 113.882812 35.15625 110.386719 39.933594 105.308594 C 40.527344 109.699219 39.257812 114.140625 36.433594 117.558594 C 34.742188 118.894531 32.675781 119.660156 30.527344 119.75 C 27.777344 119.523438 25.207031 118.289062 23.308594 116.285156 Z M 88.566406 117.550781 C 85.746094 114.136719 84.476562 109.695312 85.066406 105.300781 C 89.847656 110.382812 96.066406 113.875 102.890625 115.3125 C 102.546875 115.558594 102.152344 115.890625 101.699219 116.28125 C 99.796875 118.285156 97.226562 119.515625 94.472656 119.746094 C 92.324219 119.65625 90.253906 118.886719 88.566406 117.550781 Z M 11.394531 104.957031 C 9.5 102.113281 7.972656 99.042969 6.839844 95.816406 L 6.839844 95.75 C 10.609375 97.855469 14.863281 98.933594 19.183594 98.875 C 22.441406 98.835938 25.679688 98.367188 28.8125 97.472656 C 29.886719 97.1875 30.832031 96.890625 31.59375 96.65625 C 32.324219 96.386719 33.082031 96.195312 33.855469 96.078125 L 33.972656 96.078125 C 35.296875 96.375 37.582031 99.296875 38.03125 99.878906 C 33.714844 104.949219 27.90625 108.527344 21.433594 110.09375 C 21.070312 110.132812 20.707031 110.148438 20.34375 110.152344 C 16.683594 110.023438 13.328125 108.074219 11.402344 104.957031 Z M 103.582031 110.167969 C 97.113281 108.597656 91.300781 105.023438 86.984375 99.953125 C 87.425781 99.371094 89.714844 96.449219 91.042969 96.152344 L 91.160156 96.152344 C 91.933594 96.269531 92.695312 96.464844 93.425781 96.734375 C 94.1875 96.96875 95.136719 97.253906 96.207031 97.550781 C 99.34375 98.445312 102.582031 98.917969 105.839844 98.953125 C 110.15625 99.011719 114.414062 97.933594 118.183594 95.828125 L 118.183594 95.894531 C 117.050781 99.121094 115.519531 102.191406 113.625 105.035156 C 111.710938 108.171875 108.355469 110.140625 104.6875 110.285156 C 104.316406 110.257812 103.949219 110.210938 103.582031 110.144531 Z M 7.878906 89.894531 C 5.039062 86.066406 4.035156 81.171875 5.140625 76.53125 C 5.164062 76.398438 5.179688 76.265625 5.1875 76.128906 C 8.03125 78.699219 11.492188 80.496094 15.234375 81.339844 C 15.265625 81.375 15.289062 81.414062 15.3125 81.453125 C 18.597656 85.988281 22.847656 89.738281 27.753906 92.4375 C 24.667969 93.292969 21.484375 93.757812 18.28125 93.824219 C 14.402344 94.109375 10.59375 92.664062 7.878906 89.875 Z M 97.234375 92.425781 C 102.140625 89.726562 106.390625 85.976562 109.683594 81.441406 C 109.703125 81.402344 109.730469 81.367188 109.761719 81.332031 C 113.503906 80.488281 116.964844 78.695312 119.8125 76.125 C 119.820312 76.257812 119.835938 76.394531 119.859375 76.527344 C 120.96875 81.164062 119.964844 86.058594 117.121094 89.886719 C 114.398438 92.667969 110.582031 94.101562 106.703125 93.800781 C 103.5 93.730469 100.320312 93.261719 97.234375 92.40625 Z M 62.53125 0 Z M 62.472656 0 Z M 62.472656 0 " />
    </g>
</svg>
