<svg xmlns="http://www.w3.org/2000/svg" xmlns:xlink="http://www.w3.org/1999/xlink" width="24" height="24" viewBox="0 0 24 24">
  <defs>
    <clipPath id="clip-SoT">
      <rect width="48" height="48"/>
    </clipPath>
  </defs>
  <g id="SoT" clip-path="url(#clip-SoT)">
    <g id="Group_79" data-name="Group 79" transform="translate(0 2.235)">
      <g id="Group_78" data-name="Group 78" clip-path="url(#clip-path)">
        <path id="Path_189" data-name="Path 189" d="M9.422,16.356l.577.636A17.55,17.55,0,0,1,8.7,18.326c-.326.3-.987,1.075-1.432,1.19s-1.236-.532-1.683-.782c-.958-.536-1.913-1.087-2.87-1.629A29.843,29.843,0,0,1,0,15.583a14.606,14.606,0,0,0,2.325-2.522c.207.22.975,1.4,1.163,1.434a7.263,7.263,0,0,1-1-2.185,11.286,11.286,0,0,1,.185-2c-.109-.347-.088-.834-.317-1.127-.1-.474-.588-.745-.7-1.179a5.7,5.7,0,0,0,.217-.632c1.711.885,2.724,3.022,4.412,3.945a1.837,1.837,0,0,0,.709.633,7.126,7.126,0,0,0,.787.766l-.371.413c-.971-.476-2.736-1.146-2.878.532A2.2,2.2,0,0,0,6.975,16.16,4.207,4.207,0,0,0,9.487,9.13,9.622,9.622,0,0,0,5.71,6.751c-.719-.277-1.448-.526-2.172-.787-.684-.247-1.3-.187-.86-.99A10.172,10.172,0,0,1,10.457.006,6.083,6.083,0,0,1,14.024.77c.534.423.008.593-.384,1.083A8.154,8.154,0,0,1,12.1,3.733c.223-.138-.583-1.337-.784-1.488a3.873,3.873,0,0,0-2.03-.64,5.559,5.559,0,0,0-3.84,1.083A25.183,25.183,0,0,0,7.832,4.144C8.363,4.43,9.038,4.6,9.038,5.3c1.015-.227,2.332,1.55,2.809,2.381a5.19,5.19,0,0,1,.645,2.469,9.314,9.314,0,0,1-2.355,6.68,3.567,3.567,0,0,1-.7-.486L9.4,16.316l-.008.011.034.029" transform="translate(0 0.001)"/>
        <path id="Path_190" data-name="Path 190" d="M268.368,41.362a10.672,10.672,0,0,1-1.148.134c-.166-.126-.091-.669-.1-.873a2.952,2.952,0,0,0-.668-2.3c-.745-.74-1.143-.4-1.89.291-.2.183-1.317,1.831-1.4,1.8a26.94,26.94,0,0,1,.553-3.939c.256-.837.465-.163,1.126,0a17.2,17.2,0,0,0,3.869.04,16.619,16.619,0,0,0,3-.115,2.262,2.262,0,0,0,.674-.139c.1-.047.307-.289.4-.3.394-.057.247-.064.364.413a12.885,12.885,0,0,1,.2,1.51c.037.316.7,2.418.518,2.577a16.325,16.325,0,0,1-1.5-1.868c-.431-.443-1.623-1.514-2.338-1.243-.844.32-.475,4.025-.479,4.754q-.022,3.246-.038,6.491a21.158,21.158,0,0,0,.085,2.636,1.091,1.091,0,0,0,.466.946c.117.1.524.149.479.363a24.358,24.358,0,0,1-4.569-.015c-.018-.112.62-.483.716-.616A2.36,2.36,0,0,0,267,50.73c.111-1.315.045-2.677.066-4,.02-1.258.042-2.517.059-3.775.014-1.013.273-1.327,1.244-1.575l0-.021" transform="translate(-249.89 -34.044)"/>
        <path id="Path_191" data-name="Path 191" d="M252.139,132.987c.535,0,2.046.012,2.279.718.137.415-.109.132-.176.507-.087.486-.05.992-.138,1.48a6.493,6.493,0,0,1-.911,2.307c-.406.629-.84,1.324-1.475.792a5.635,5.635,0,0,1-1.415-3.559c-.01-.1-.042-.631-.055-.68.015.058-.247-.589-.24-.512-.032-.346.011-.4.493-.649a3.086,3.086,0,0,1,1.638-.4m1.007,2.124c-.071-.792-.317-2.073-1.431-1.486-.742.391-.48,2.2-.38,2.919.091.652.518,2.5,1.206,1.435.548-.848.389-1.929.6-2.868" transform="translate(-237.408 -126.004)"/>
      </g>
    </g>
  </g>
</svg>
