<svg xmlns="http://www.w3.org/2000/svg" width="24" height="24" viewBox="0 0 24 24">
    <defs>
        <clipPath id="clip-levelranking_">
            <rect width="24" height="24" />
        </clipPath>
    </defs>
    <g id="levelranking_" data-name="levelranking " clip-path="url(#clip-levelranking_)">
        <path id="Path_120" data-name="Path 120"
            d="M-2364.243-776l-4.191-4.191.132-.055a9.442,9.442,0,0,0,3.019-2.036,9.5,9.5,0,0,0,1.425-1.818l3.858,3.859h-4.243V-776h0Zm-15.514,0v-4.241H-2384l3.859-3.859a9.532,9.532,0,0,0,1.425,1.818,9.456,9.456,0,0,0,3.019,2.036l.133.055-4.192,4.192Zm6.458-4.6a8.448,8.448,0,0,1-2.01-.57,8.461,8.461,0,0,1-2.7-1.822,8.464,8.464,0,0,1-1.822-2.7,8.423,8.423,0,0,1-.57-2.01l-2.6-1.3,2.6-1.3a8.44,8.44,0,0,1,.57-2.01,8.448,8.448,0,0,1,1.822-2.7,8.461,8.461,0,0,1,2.7-1.821,8.425,8.425,0,0,1,2.01-.57l1.3-2.6,1.3,2.6a8.306,8.306,0,0,1,2.458.784,8.9,8.9,0,0,1,2.978,2.431,7.885,7.885,0,0,1,1.284,2.342,8.567,8.567,0,0,1,.384,1.546l2.6,1.3-2.6,1.3a8.434,8.434,0,0,1-.57,2.01,8.463,8.463,0,0,1-1.822,2.7,8.468,8.468,0,0,1-2.7,1.822,8.453,8.453,0,0,1-2.01.57l-1.3,2.6Zm-5.7-8.4a7.007,7.007,0,0,0,7,7,7.008,7.008,0,0,0,7-6.922v-.155a7.008,7.008,0,0,0-7-6.923A7.007,7.007,0,0,0-2379-789Zm4,5.2V-786h-2.2a6,6,0,0,1-.8-3,5.994,5.994,0,0,1,.8-3h2.2v-2.2a6,6,0,0,1,3-.8,6,6,0,0,1,3,.8v2.2h2.2a6.006,6.006,0,0,1,.8,3,6,6,0,0,1-.8,3h-2.2v2.2a5.993,5.993,0,0,1-3,.8A6,6,0,0,1-2375-783.8Zm3-10.2-1,4-4,1,4,1,1,4,1-4,4-1-4-1-1-4h0Z"
            transform="translate(2384 800)" fill="#000" />
    </g>
</svg>
